<svg xmlns="http://www.w3.org/2000/svg" viewBox="0 0 400 128" width="400" height="128" role="img" aria-label="annox">
  <style>
    .name { fill: #1f2937; }
    @media (prefers-color-scheme: dark) { .name { fill: #f3f4f6; } }
  </style>
  <!-- Icon, same as annox.svg -->
  <rect x="14" y="10" width="76" height="100" rx="10" fill="#ffffff" stroke="#1f2937" stroke-width="5"/>
  <rect x="26" y="40" width="52" height="14" rx="3" fill="#facc15"/>
  <g stroke="#9ca3af" stroke-width="5" stroke-linecap="round">
    <line x1="30" y1="30" x2="74" y2="30"/>
    <line x1="30" y1="47" x2="74" y2="47" stroke="#1f2937"/>
    <line x1="30" y1="64" x2="62" y2="64"/>
    <line x1="30" y1="80" x2="54" y2="80"/>
    <line x1="30" y1="96" x2="48" y2="96"/>
  </g>
  <path d="M70 66 h40 a10 10 0 0 1 10 10 v20 a10 10 0 0 1 -10 10 h-22 l-12 11 v-11 h-6 a10 10 0 0 1 -10 -10 v-20 a10 10 0 0 1 10 -10 z"
        fill="#6366f1" stroke="#1f2937" stroke-width="5" stroke-linejoin="round"/>
  <g fill="#ffffff">
    <circle cx="78" cy="86" r="4"/>
    <circle cx="90" cy="86" r="4"/>
    <circle cx="102" cy="86" r="4"/>
  </g>
  <!-- Name -->
  <text class="name" x="142" y="92" font-family="-apple-system, BlinkMacSystemFont, 'Segoe UI', Helvetica, Arial, sans-serif"
        font-size="84" font-weight="700" letter-spacing="-2">annox</text>
</svg>
